HIERARCHY
ROOT Root
{
	OFFSET 0.00000 0.00000 0.00000
	CHANNELS 6 Xposition Yposition Zposition Zrotation Xrotation Yrotation
	JOINT Hips
	{
		OFFSET 0 0 0	
		CHANNELS 3 Zrotation Xrotation Yrotation
		JOINT Spine
		{
			OFFSET 0 4 0	
			CHANNELS 3 Zrotation Xrotation Yrotation
			JOINT Spine1
			{
				OFFSET 0 19.4 0	
				CHANNELS 3 Zrotation Xrotation Yrotation
				JOINT Spine2
				{
					OFFSET 0 16.6 0	
					CHANNELS 3 Zrotation Xrotation Yrotation
					JOINT LeftCollar
					{
						OFFSET 0 10 0	
						CHANNELS 3 Zrotation Xrotation Yrotation
						JOINT LeftArm
						{
							OFFSET 15.6 -2 3	
							CHANNELS 3 Zrotation Xrotation Yrotation
							JOINT LeftForeArm
							{
								OFFSET 3.5 -27 -1	
								CHANNELS 3 Zrotation Xrotation Yrotation
								JOINT LeftHand
								{
									OFFSET 1 -27 1	
									CHANNELS 3 Zrotation Xrotation Yrotation
									End Site
									{
										OFFSET 0 -15 0
									}
								}
							}
						}
					}
					JOINT RightCollar
					{
						OFFSET 0 10 0	
						CHANNELS 3 Zrotation Xrotation Yrotation
						JOINT RightArm
						{
							OFFSET -15.6 -2 3	
							CHANNELS 3 Zrotation Xrotation Yrotation
							JOINT RightForeArm
							{
								OFFSET -3.5 -27 -1	
								CHANNELS 3 Zrotation Xrotation Yrotation
								JOINT RightHand
								{
									OFFSET -1 -27 1	
									CHANNELS 3 Zrotation Xrotation Yrotation
									End Site
									{
										OFFSET 0 -15 0
									}
								}
							}
						}
					}
					JOINT Neck
					{
						OFFSET 0 10 0	
						CHANNELS 3 Zrotation Xrotation Yrotation
						JOINT Head
						{
							OFFSET 0 12.7 3	
							CHANNELS 3 Zrotation Xrotation Yrotation
							End Site
							{
								OFFSET 0 12.7 3
							}
						}
					}
				}
			}
		}
	}
	JOINT LeftHip
	{
		OFFSET 0 0 0	
		CHANNELS 3 Zrotation Xrotation Yrotation
		JOINT LeftUpLeg
		{
			OFFSET 8.8 -6 0	
			CHANNELS 3 Zrotation Xrotation Yrotation
			JOINT LeftLeg
			{
				OFFSET 0 -39 2	
				CHANNELS 3 Zrotation Xrotation Yrotation
				JOINT LeftFoot
				{
					OFFSET 0 -43 -2	
					CHANNELS 3 Zrotation Xrotation Yrotation
					JOINT LeftFootFront
					{
						OFFSET 0 -7 8.5	
						CHANNELS 3 Zrotation Xrotation Yrotation
						End Site
						{
							OFFSET 0 -0.5 9
						}
					}
				}
				JOINT LeftHeel
				{
					OFFSET 0 -43 -2	
					CHANNELS 3 Zrotation Xrotation Yrotation
					End Site
					{
						OFFSET 0 -7.5 -5
					}
				}
			}
		}
	}
	JOINT RightHip
	{
		OFFSET 0 0 0	
		CHANNELS 3 Zrotation Xrotation Yrotation
		JOINT RightUpLeg
		{
			OFFSET -8.8 -6 0	
			CHANNELS 3 Zrotation Xrotation Yrotation
			JOINT RightLeg
			{
				OFFSET 0 -39 2	
				CHANNELS 3 Zrotation Xrotation Yrotation
				JOINT RightFoot
				{
					OFFSET 0 -43 -2	
					CHANNELS 3 Zrotation Xrotation Yrotation
					JOINT RightFootFront
					{
						OFFSET 0 -7 8.5	
						CHANNELS 3 Zrotation Xrotation Yrotation
						End Site
						{
							OFFSET 0 -0.5 9
						}
					}
				}
				JOINT RightHeel
				{
					OFFSET 0 -43 -2	
					CHANNELS 3 Zrotation Xrotation Yrotation
					End Site
					{
						OFFSET 0 -7.5 -5
					}
				}
			}
		}
	}
}
MOTION
Frames: 7
Frame Time: 0.05
-20.838 94.246 10.3 -0 0 -0 -4.6759 5.3881 31.653 0.47086 -3.1522 -4.7011 0.47086 -3.1522 -4.7011 0.41288 -2.6454 -3.95 -0 0 -0 -0.18206 -26.335 -14.19 -19.052 -16.407 45.09 -1.8842 -5.7606 46.262 -0 0 -0 -6.2886 0.88059 -0.4175 32.497 -39.106 -4.5755 13.459 -7.8088 -53.612 -2.3459 17.722 4.5225 -0.65163 15.195 0.32451 -4.6759 5.3881 31.653 -33.28 -31.473 -49.263 11.313 29.702 36.791 -0 0 -0 0 0 -4.8025e-07 -0 0 -0 -4.6759 5.3881 31.653 4.1805 -9.5867 3.454 8.3228 13.697 23.19 -0 0 -0 -8.1384e-07 -1.4361 3.1917e-06 -0 0 -0 
-20.342 93.9 10.921 -0 0 -0 -5.8293 5.5971 32.83 0.77543 -2.7435 -4.9264 0.77543 -2.7435 -4.9264 0.66719 -2.3002 -4.1401 -0 0 -0 0.44 -29.773 -7.2061 -21.413 -11.848 38.831 -2.0509 -6.4268 46.521 -0 0 -0 -5.4626 -1.1712 1.7396 31.06 -38.909 -6.1674 13.695 -8.3809 -53.355 -2.2716 16.559 4.7259 -0.35717 14.379 0.36411 -5.8293 5.5971 32.83 -34.941 -33.448 -49.172 12.397 31.18 33.149 -0 0 -0 -0 0 1.4941e-06 -0 0 -0 -5.8293 5.5971 32.83 5.7215 -9.6234 3.2754 8.4641 14.312 23.063 -0 0 -0 8.4343e-07 -2.3336 -5.1654e-07 -0 0 -0 
-20.002 93.496 12.389 -0 0 -0 -7.3937 5.9517 33.659 1.2273 -2.167 -5.2832 1.2273 -2.167 -5.2832 1.0444 -1.8128 -4.4407 -0 0 -0 0.058153 -32.56 -1.7117 -21.422 -8.8112 33.895 -2.412 -6.9971 46.665 -0 0 -0 -4.2029 -4.2883 5.0951 28.991 -38.161 -8.1885 14.015 -8.9669 -52.875 -2.3849 15.162 5.4095 -0.12191 13.487 0.77111 -7.3937 5.9517 33.659 -36.01 -35.319 -47.458 14.514 31.846 27.871 -0 0 -0 0 0 -6.4033e-07 -0 0 -0 -7.3937 5.9517 33.659 7.6082 -9.9693 3.7571 8.7772 14.843 23.043 -0 0 -0 9.3897e-08 -3.0512 3.5256e-06 -0 0 -0 
-19.738 93.066 14.36 -0 0 -0 -8.6793 7.9061 34.016 1.2352 -1.2993 -5.0499 1.2352 -1.2993 -5.0499 1.0453 -1.0842 -4.2437 -0 0 -0 0.34875 -36.302 -2.4345 -21.226 -8.6461 33.445 -2.8595 -7.5174 46.893 -0 0 -0 -2.2836 -8.9932 7.2066 26.903 -37.196 -9.8126 14.436 -9.4123 -52.312 -1.8329 12.908 5.2211 0.19263 11.924 0.85116 -8.6793 7.9061 34.016 -37.954 -38.054 -46.398 16.087 32.298 23.12 -0 0 -0 0 0 -1.4407e-06 -0 0 -0 -8.6793 7.9061 34.016 8.4447 -11.37 4.6385 8.2867 16.078 23.166 -0 0 -0 -1.1646e-07 -4.794 -2.7821e-06 -0 0 -0 
-19.535 92.639 16.461 -0 0 -0 -9.7749 11.79 33.969 0.61766 -0.55374 -4.7473 0.61766 -0.55374 -4.7473 0.52195 -0.46173 -3.9881 -0 0 -0 1.5358 -40.314 -3.8682 -20.932 -9.3003 33.875 -3.4417 -8.2053 47.001 -0 0 -0 0.81862 -14.479 9.6535 24.609 -36.041 -11.258 15.185 -9.9794 -51.343 -0.74901 10.136 5.0618 0.48723 9.7017 1.01 -9.7749 11.79 33.969 -40.931 -42.226 -47.247 15.972 32.968 20.251 -0 0 -0 0 0 -1.334e-06 -0 0 -0 -9.7749 11.79 33.969 8.5724 -14.255 5.8704 7.7484 17.424 22.239 -0 0 -0 -1.0195e-07 -6.7977 -1.7166e-06 -0 0 -0 
-19.412 92.24 18.426 -0 0 -0 -11.125 15.189 33.524 0.18583 0.25123 -4.6164 0.18583 0.25122 -4.6164 0.15474 0.21205 -3.8777 -0 0 -0 2.1274 -43.961 -4.596 -19.708 -9.6652 34.28 -4.0446 -8.9798 46.782 -0 0 -0 4.3097 -19.732 13.823 21.916 -34.845 -13.415 16.151 -10.376 -50.161 -0.047413 7.2613 5.4559 0.60135 7.4599 1.5452 -11.125 15.189 33.524 -41.248 -46.937 -46.845 13.73 33.543 18.372 -0 0 -0 0 0 -1.6408e-06 -0 0 -0 -11.125 15.189 33.524 9.2817 -16.932 7.8381 7.882 17.587 20.422 -0 0 -0 1.9559e-06 -7.6435 3.6603e-06 -0 0 -0 
-19.379 91.883 20.148 -0 0 -0 -12.961 17.644 32.614 -0.14706 1.1629 -4.3149 -0.14706 1.1629 -4.3149 -0.12942 0.97617 -3.6246 -0 0 -0 3.7845 -46.993 -5.1338 -18.665 -10.143 35.235 -4.5508 -9.9313 46.303 -0 0 -0 9.1897 -25.004 18.486 18.78 -32.618 -15.559 17.273 -10.92 -49.077 0.77163 5.2263 5.9412 0.9738 6.1431 2.2832 -12.961 17.644 32.614 -36.323 -51.392 -38.425 12.238 31.977 12.683 -0 0 -0 -0 0 1.0939e-06 -0 0 -0 -12.961 17.644 32.614 10.562 -19.162 9.5718 7.5791 17.502 20.318 -0 0 -0 1.9528e-06 -7.9892 3.4528e-06 -0 0 -0 
